<?xml version="1.0" standalone="no"?><!-- Generator: Gravit.io --><svg xmlns="http://www.w3.org/2000/svg" xmlns:xlink="http://www.w3.org/1999/xlink" style="isolation:isolate" viewBox="846.428 692.552 32 24.895" width="32" height="24.895"><path d=" M 871.609 697.491 C 871.614 697.752 871.524 698.005 871.355 698.203 C 871.081 698.549 870.935 698.979 870.942 699.421 L 871.831 699.421 C 871.825 699.161 871.915 698.907 872.084 698.709 C 872.358 698.363 872.504 697.933 872.498 697.491 C 872.504 697.05 872.358 696.62 872.084 696.273 C 871.915 696.076 871.824 695.822 871.831 695.562 C 871.824 695.302 871.915 695.048 872.084 694.851 C 872.358 694.504 872.504 694.074 872.498 693.633 L 871.609 693.633 C 871.61 693.889 871.518 694.137 871.351 694.331 C 871.077 694.677 870.931 695.107 870.937 695.549 C 870.931 695.99 871.077 696.421 871.351 696.767 C 871.524 696.967 871.617 697.226 871.609 697.491 L 871.609 697.491 L 871.609 697.491 Z  M 874.098 698.776 L 874.987 698.776 C 874.98 698.489 875.073 698.208 875.249 697.98 C 875.519 697.61 875.661 697.162 875.654 696.705 C 875.661 696.247 875.519 695.799 875.249 695.429 C 875.073 695.202 874.98 694.92 874.987 694.633 C 874.98 694.345 875.073 694.064 875.249 693.837 C 875.521 693.465 875.663 693.013 875.654 692.552 L 874.765 692.552 C 874.772 692.84 874.679 693.121 874.503 693.348 C 874.233 693.718 874.091 694.166 874.098 694.624 C 874.09 695.083 874.232 695.533 874.503 695.904 C 874.679 696.131 874.772 696.413 874.765 696.7 C 874.772 696.988 874.679 697.269 874.503 697.496 C 874.232 697.867 874.09 698.317 874.098 698.776 L 874.098 698.776 L 874.098 698.776 Z  M 851.261 710.255 L 852.15 710.366 C 852.684 706.076 854.951 703.053 858.885 701.386 L 858.53 700.554 C 854.342 702.333 851.83 705.693 851.261 710.255 L 851.261 710.255 Z  M 858.872 696.553 L 858.872 696.109 C 858.872 695.863 859.071 695.664 859.317 695.664 L 865.54 695.664 C 865.786 695.664 865.985 695.863 865.985 696.109 L 865.985 696.553 L 862.873 696.553 L 862.873 698.332 L 861.984 698.332 L 861.984 696.553 L 858.872 696.553 L 858.872 696.553 Z  M 850.426 710.779 C 850.426 704.396 855.6 699.221 861.984 699.221 L 862.873 699.221 C 869.257 699.221 874.431 704.396 874.431 710.779 C 874.431 711.27 874.033 711.668 873.542 711.668 L 851.315 711.668 C 850.824 711.668 850.426 711.27 850.426 710.779 L 850.426 710.779 Z  M 875.365 715.522 L 875.321 715.58 C 875.007 716.184 874.382 716.561 873.702 716.558 L 851.155 716.558 C 850.475 716.561 849.85 716.184 849.536 715.58 L 847.314 712.557 L 877.543 712.557 L 875.365 715.522 L 875.365 715.522 Z  M 878.303 712.113 C 878.146 711.841 877.857 711.672 877.543 711.668 L 875.072 711.668 C 875.231 711.399 875.317 711.092 875.321 710.779 C 875.314 704.254 870.27 698.842 863.762 698.376 L 863.762 697.442 L 866.874 697.442 L 866.874 696.109 C 866.874 695.372 866.277 694.775 865.54 694.775 L 859.317 694.775 C 858.58 694.775 857.983 695.372 857.983 696.109 L 857.983 697.442 L 861.095 697.442 L 861.095 698.376 C 854.587 698.842 849.543 704.254 849.536 710.779 C 849.54 711.092 849.626 711.399 849.785 711.668 L 847.314 711.668 C 847.001 711.673 846.714 711.842 846.558 712.113 C 846.398 712.375 846.385 712.701 846.522 712.975 L 848.745 716.025 C 849.22 716.911 850.149 717.459 851.155 717.447 L 873.702 717.447 C 874.71 717.454 875.638 716.899 876.107 716.007 L 878.303 713.015 L 878.339 712.953 C 878.469 712.685 878.455 712.369 878.303 712.113 L 878.303 712.113 L 878.303 712.113 Z " fill-rule="evenodd" fill="rgb(255,95,46)"/></svg>