<?xml version="1.0" standalone="no"?><!-- Generator: Gravit.io --><svg xmlns="http://www.w3.org/2000/svg" xmlns:xlink="http://www.w3.org/1999/xlink" style="isolation:isolate" viewBox="648.35 693.16 35.687 24.1" width="35.687" height="24.1"><path d=" M 666.194 693.21 C 659.572 693.21 654.194 698.587 654.194 705.21 C 654.194 711.832 659.572 717.21 666.194 717.21 C 672.817 717.21 678.194 711.832 678.194 705.21 C 678.194 698.587 672.817 693.21 666.194 693.21 Z  M 666.194 694.037 C 672.37 694.037 677.367 699.034 677.367 705.21 C 677.367 711.385 672.37 716.382 666.194 716.382 C 660.019 716.382 655.022 711.385 655.022 705.21 C 655.022 699.034 660.019 694.037 666.194 694.037 Z  M 648.776 695.266 C 648.759 695.269 648.741 695.273 648.724 695.279 C 648.532 695.322 648.396 695.495 648.401 695.692 L 648.401 700.658 C 648.4 700.675 648.4 700.692 648.401 700.71 C 648.578 702.055 649.168 703.171 650.043 703.748 L 649.643 714.714 C 649.639 714.826 649.681 714.934 649.759 715.015 C 649.837 715.095 649.944 715.141 650.056 715.141 L 652.539 715.141 C 652.651 715.141 652.758 715.095 652.836 715.015 C 652.914 714.934 652.956 714.826 652.953 714.714 L 652.552 703.748 C 653.427 703.171 654.017 702.055 654.194 700.71 C 654.195 700.692 654.195 700.675 654.194 700.658 L 654.194 695.692 C 654.196 695.543 654.118 695.404 653.989 695.329 C 653.86 695.254 653.701 695.254 653.572 695.329 C 653.443 695.404 653.365 695.543 653.367 695.692 L 653.367 700.606 C 653.303 701.088 653.182 701.525 653.018 701.899 L 652.539 701.899 L 652.539 695.692 C 652.542 695.565 652.486 695.443 652.388 695.362 C 652.289 695.282 652.159 695.251 652.035 695.279 C 651.842 695.322 651.707 695.495 651.712 695.692 L 651.712 701.899 L 650.884 701.899 L 650.884 695.692 C 650.887 695.565 650.831 695.443 650.733 695.362 C 650.634 695.282 650.504 695.251 650.38 695.279 C 650.187 695.322 650.052 695.495 650.056 695.692 L 650.056 701.899 L 649.578 701.899 C 649.413 701.525 649.292 701.088 649.229 700.606 L 649.229 695.692 C 649.233 695.573 649.186 695.458 649.099 695.376 C 649.012 695.295 648.895 695.254 648.776 695.266 Z  M 681.091 695.279 C 680.219 695.276 679.478 695.857 678.983 696.675 C 678.488 697.493 678.204 698.572 678.207 699.766 C 678.213 701.554 678.787 703.03 679.849 703.735 L 679.449 714.714 C 679.445 714.826 679.487 714.934 679.565 715.015 C 679.643 715.095 679.75 715.141 679.862 715.141 L 682.332 715.141 C 682.444 715.141 682.552 715.095 682.629 715.015 C 682.707 714.934 682.75 714.826 682.746 714.714 L 682.345 703.735 C 683.408 703.03 683.982 701.554 683.987 699.766 C 683.991 698.571 683.697 697.48 683.199 696.662 C 682.7 695.844 681.962 695.276 681.091 695.279 Z  M 681.091 696.106 C 681.596 696.105 682.1 696.445 682.5 697.102 C 682.901 697.759 683.163 698.708 683.16 699.766 C 683.155 701.513 682.541 702.779 681.737 703.179 C 681.59 703.251 681.498 703.403 681.505 703.567 L 681.906 714.313 L 680.289 714.313 L 680.69 703.567 C 680.696 703.403 680.605 703.251 680.457 703.179 C 679.653 702.779 679.04 701.513 679.035 699.766 C 679.032 698.707 679.297 697.759 679.694 697.102 C 680.092 696.445 680.586 696.105 681.091 696.106 Z  M 666.194 697.347 C 661.857 697.347 658.332 700.872 658.332 705.21 C 658.332 709.547 661.857 713.072 666.194 713.072 C 670.531 713.072 674.056 709.547 674.056 705.21 C 674.056 700.872 670.531 697.347 666.194 697.347 Z  M 666.194 698.175 C 670.084 698.175 673.229 701.32 673.229 705.21 C 673.229 709.099 670.084 712.244 666.194 712.244 C 662.304 712.244 659.16 709.099 659.16 705.21 C 659.16 701.32 662.304 698.175 666.194 698.175 Z  M 650.095 702.727 L 652.5 702.727 C 652.327 702.925 652.137 703.083 651.944 703.179 C 651.797 703.251 651.705 703.403 651.712 703.567 L 652.112 714.313 L 650.483 714.313 L 650.884 703.567 C 650.89 703.403 650.799 703.251 650.651 703.179 C 650.459 703.083 650.268 702.925 650.095 702.727 Z " fill="rgb(255,95,46)" vector-effect="non-scaling-stroke" stroke-width="0.1" stroke="rgb(255,95,46)" stroke-linejoin="miter" stroke-linecap="butt" stroke-miterlimit="4"/></svg>